{
  "accessors": [
    {
      "bufferView": 2,
      "componentType": 5126,
      "count": 2188,
      "max": [
        134.61500549316406,
        188.82261657714844,
        134.43618774414062
      ],
      "min": [
        -145.78224182128906,
        10.98411750793457,
        -124.60206604003906
      ],
      "type": "VEC3"
    },
    {
      "bufferView": 2,
      "byteOffset": 26256,
      "componentType": 5126,
      "count": 2188,
      "max": [
        0.94160294532775879,
        1,
        1
      ],
      "min": [
        -0.94076693058013916,
        -1,
        -1
      ],
      "type": "VEC3"
    },
    {
      "bufferView": 1,
      "componentType": 5126,
      "count": 2188,
      "max": [
        0.5474357008934021,
        0.68402963876724243
      ],
      "min": [
        0.088267095386981964,
        0.39499360322952271
      ],
      "type": "VEC2"
    },
    {
      "bufferView": 0,
      "componentType": 5125,
      "count": 7020,
      "max": [
        2187
      ],
      "min": [
        0
      ],
      "type": "SCALAR"
    },
    {
      "bufferView": 2,
      "byteOffset": 52512,
      "componentType": 5126,
      "count": 2188,
      "max": [
        133.72291564941406,
        187.79243469238281,
        133.63327026367188
      ],
      "min": [
        -144.89016723632812,
        12.029634475708008,
        -123.79151916503906
      ],
      "type": "VEC3"
    },
    {
      "bufferView": 2,
      "byteOffset": 78768,
      "componentType": 5126,
      "count": 2188,
      "max": [
        0.94127732515335083,
        1,
        1
      ],
      "min": [
        -0.94054079055786133,
        -1,
        -1
      ],
      "type": "VEC3"
    },
    {
      "bufferView": 1,
      "byteOffset": 17504,
      "componentType": 5126,
      "count": 2188,
      "max": [
        0.5474357008934021,
        0.68402963876724243
      ],
      "min": [
        0.088267095386981964,
        0.39499360322952271
      ],
      "type": "VEC2"
    },
    {
      "bufferView": 0,
      "byteOffset": 28080,
      "componentType": 5125,
      "count": 7020,
      "max": [
        2187
      ],
      "min": [
        0
      ],
      "type": "SCALAR"
    },
    {
      "bufferView": 2,
      "byteOffset": 105024,
      "componentType": 5126,
      "count": 3765,
      "max": [
        158.68327331542969,
        160.22096252441406,
        150.13031005859375
      ],
      "min": [
        -174.58473205566406,
        -6.2271804809570312,
        -145.252197265625
      ],
      "type": "VEC3"
    },
    {
      "bufferView": 2,
      "byteOffset": 150204,
      "componentType": 5126,
      "count": 3765,
      "max": [
        0.99824106693267822,
        0.99998593330383301,
        0.99857670068740845
      ],
      "min": [
        -0.99998313188552856,
        -1,
        -0.99962365627288818
      ],
      "type": "VEC3"
    },
    {
      "bufferView": 1,
      "byteOffset": 35008,
      "componentType": 5126,
      "count": 3765,
      "max": [
        0.98585695028305054,
        0.96590179204940796
      ],
      "min": [
        0.023971661925315857,
        0.022381873801350594
      ],
      "type": "VEC2"
    },
    {
      "bufferView": 0,
      "byteOffset": 56160,
      "componentType": 5125,
      "count": 15741,
      "max": [
        3764
      ],
      "min": [
        0
      ],
      "type": "SCALAR"
    },
    {
      "bufferView": 2,
      "byteOffset": 195384,
      "componentType": 5126,
      "count": 1910,
      "max": [
        161.38784790039062,
        162.04096984863281,
        152.65341186523438
      ],
      "min": [
        -177.60777282714844,
        -6.3080310821533203,
        -147.80560302734375
      ],
      "type": "VEC3"
    },
    {
      "bufferView": 2,
      "byteOffset": 218304,
      "componentType": 5126,
      "count": 1910,
      "max": [
        0.99811416864395142,
        0.91951900720596313,
        0.98089331388473511
      ],
      "min": [
        -0.99857085943222046,
        -1,
        -0.99355298280715942
      ],
      "type": "VEC3"
    },
    {
      "bufferView": 1,
      "byteOffset": 65128,
      "componentType": 5126,
      "count": 1910,
      "max": [
        0.98087936639785767,
        0.96590179204940796
      ],
      "min": [
        0.023971661925315857,
        0.021552905440330505
      ],
      "type": "VEC2"
    },
    {
      "bufferView": 0,
      "byteOffset": 119124,
      "componentType": 5125,
      "count": 9936,
      "max": [
        1909
      ],
      "min": [
        0
      ],
      "type": "SCALAR"
    }
  ],
  "asset": {
    "extras": {
      "author": "Laura Costa (https://sketchfab.com/LauraMG)",
      "license": "CC-BY-4.0 (http://creativecommons.org/licenses/by/4.0/)",
      "source": "https://sketchfab.com/3d-models/bongo-cat-in-winter-7e13685dc3194ae49d1b5617370252bc",
      "title": "Bongo Cat in Winter"
    },
    "generator": "Sketchfab-7.51.0",
    "version": "2.0"
  },
  "bufferViews": [
    {
      "buffer": 0,
      "byteLength": 158868,
      "byteOffset": 0,
      "name": "floatBufferViews",
      "target": 34963
    },
    {
      "buffer": 0,
      "byteLength": 80408,
      "byteOffset": 158868,
      "byteStride": 8,
      "name": "floatBufferViews",
      "target": 34962
    },
    {
      "buffer": 0,
      "byteLength": 241224,
      "byteOffset": 239276,
      "byteStride": 12,
      "name": "floatBufferViews",
      "target": 34962
    }
  ],
  "buffers": [
    {
      "byteLength": 480500,
      "uri": "scene.bin"
    }
  ],
  "extensionsUsed": [
    "KHR_materials_unlit"
  ],
  "images": [
    {
      "uri": "textures/Texture_baseColor.png"
    }
  ],
  "materials": [
    {
      "doubleSided": false,
      "emissiveFactor": [
        0,
        0,
        0
      ],
      "extensions": {
        "KHR_materials_unlit": {}
      },
      "name": "Outline",
      "pbrMetallicRoughness": {
        "baseColorFactor": [
          0.04184124973140825,
          0.04184124973140825,
          0.04184124973140825,
          1
        ],
        "metallicFactor": 0,
        "roughnessFactor": 1
      }
    },
    {
      "doubleSided": true,
      "emissiveFactor": [
        0,
        0,
        0
      ],
      "extensions": {
        "KHR_materials_unlit": {}
      },
      "name": "Texture",
      "pbrMetallicRoughness": {
        "baseColorFactor": [
          1,
          1,
          1,
          1
        ],
        "baseColorTexture": {
          "index": 0,
          "texCoord": 0
        },
        "metallicFactor": 0,
        "roughnessFactor": 1
      }
    }
  ],
  "meshes": [
    {
      "name": "Cat_Outline_0",
      "primitives": [
        {
          "attributes": {
            "NORMAL": 1,
            "POSITION": 0,
            "TEXCOORD_0": 2
          },
          "indices": 3,
          "material": 0,
          "mode": 4
        }
      ]
    },
    {
      "name": "Cat_Texture_0",
      "primitives": [
        {
          "attributes": {
            "NORMAL": 5,
            "POSITION": 4,
            "TEXCOORD_0": 6
          },
          "indices": 7,
          "material": 1,
          "mode": 4
        }
      ]
    },
    {
      "name": "1",
      "primitives": [
        {
          "attributes": {
            "NORMAL": 9,
            "POSITION": 8,
            "TEXCOORD_0": 10
          },
          "indices": 11,
          "material": 1,
          "mode": 4
        }
      ]
    },
    {
      "name": "0",
      "primitives": [
        {
          "attributes": {
            "NORMAL": 13,
            "POSITION": 12,
            "TEXCOORD_0": 14
          },
          "indices": 15,
          "material": 0,
          "mode": 4
        }
      ]
    }
  ],
  "nodes": [
    {
      "children": [
        1
      ],
      "name": "RootNode (gltf orientation matrix)",
      "rotation": [
        -0.70710678118654746,
        -0,
        -0,
        0.70710678118654757
      ]
    },
    {
      "children": [
        2
      ],
      "name": "RootNode (model correction matrix)"
    },
    {
      "children": [
        3
      ],
      "matrix": [
        1,
        0,
        0,
        0,
        0,
        0,
        1,
        0,
        0,
        -1,
        0,
        0,
        0,
        0,
        0,
        1
      ],
      "name": "446e34b1fcf4474f8e631c6df42d4ce2.fbx"
    },
    {
      "children": [
        4,
        7,
        9,
        12
      ],
      "name": "RootNode"
    },
    {
      "children": [
        5
      ],
      "matrix": [
        -29.08647719990347,
        -5.5189064575668629,
        -95.517119101714371,
        0,
        56.639309131094492,
        79.467234285632031,
        -21.839123978419661,
        0,
        77.110087759933748,
        -60.452463565620441,
        -19.988346967737169,
        0,
        407.62454223632812,
        590.38623046875,
        -100.54539489746094,
        1
      ],
      "name": "Light"
    },
    {
      "children": [
        6
      ],
      "matrix": [
        1,
        0,
        0,
        0,
        0,
        2.2204460492503131e-16,
        1,
        0,
        0,
        -1,
        2.2204460492503131e-16,
        0,
        0,
        0,
        0,
        1
      ],
      "name": ""
    },
    {
      "name": ""
    },
    {
      "children": [
        8
      ],
      "matrix": [
        -65.155832803290963,
        -44.527135765708579,
        -61.417030473735487,
        0,
        -32.40134137821245,
        89.539574512336159,
        -30.542088974418615,
        0,
        68.592054721299746,
        -1.0718647115348782e-05,
        -72.767633623962695,
        0,
        735.88916015625,
        495.8309326171875,
        692.5791015625,
        1
      ],
      "name": "Camera"
    },
    {
      "name": ""
    },
    {
      "children": [
        10,
        11
      ],
      "matrix": [
        1,
        0,
        0,
        0,
        0,
        0.99999999999998668,
        1.6292067073209113e-07,
        0,
        0,
        -1.6292067073209113e-07,
        0.99999999999998668,
        0,
        0,
        0,
        0,
        1
      ],
      "name": "Cat"
    },
    {
      "mesh": 0,
      "name": "Cat_Outline_0"
    },
    {
      "mesh": 1,
      "name": "Cat_Texture_0"
    },
    {
      "children": [
        13,
        14
      ],
      "matrix": [
        1,
        0,
        0,
        0,
        0,
        0.99999999999998668,
        1.6292067073209113e-07,
        0,
        0,
        -1.6292067073209113e-07,
        0.99999999999998668,
        0,
        0,
        0,
        0,
        1
      ],
      "name": "Cat.001"
    },
    {
      "mesh": 2,
      "name": "1"
    },
    {
      "mesh": 3,
      "name": "0"
    }
  ],
  "samplers": [
    {
      "magFilter": 9729,
      "minFilter": 9987,
      "wrapS": 10497,
      "wrapT": 10497
    }
  ],
  "scene": 0,
  "scenes": [
    {
      "name": "OSG_Scene",
      "nodes": [
        0
      ]
    }
  ],
  "textures": [
    {
      "sampler": 0,
      "source": 0
    }
  ]
}

